<svg xmlns="http://www.w3.org/2000/svg" viewBox="0 0 64 64" role="img" aria-label="Twitter icon">
  <path fill="#000" d="M58.7 13.7c-2 1-4.2 1.6-6.5 1.9a11.3 11.3 0 0 0 4.9-6.2 22.5 22.5 0 0 1-7.2 2.8 11.2 11.2 0 0 0-19.4 7.7c0 .9.1 1.8.3 2.6a31.8 31.8 0 0 1-23.1-11.7 11.3 11.3 0 0 0 3.5 15.1 11 11 0 0 1-5.1-1.4v.1c0 5.4 3.8 9.9 8.9 11a11.4 11.4 0 0 1-5.1.2 11.3 11.3 0 0 0 10.5 7.8 22.6 22.6 0 0 1-14.1 4.9c-.9 0-1.8 0-2.7-.2a31.9 31.9 0 0 0 17.3 5.1c20.8 0 32.1-17.2 32.1-32.1v-1.5a22.4 22.4 0 0 0 5.6-5.9z"/>
</svg>
